<svg t="1586082796307" class="icon" viewBox="0 0 1024 1024" version="1.1" xmlns="http://www.w3.org/2000/svg" p-id="1749" width="24" height="24">
          <path fill="#dbdbdb" d="M228.266667 853.333333h-57.6v-682.666666h57.6v682.666666z m85.333333-625.066666h228.266667c8.533333 0 14.933333 2.133333 19.2 8.533333s8.533333 12.8 8.533333 19.2v228.266667c0 8.533333-2.133333 14.933333-8.533333 19.2-6.4 6.4-12.8 8.533333-19.2 8.533333h-228.266667c-8.533333 0-14.933333-2.133333-19.2-8.533333-6.4-6.4-8.533333-12.8-8.533333-19.2v-228.266667c0-8.533333 2.133333-14.933333 8.533333-19.2 4.266667-6.4 10.666667-8.533333 19.2-8.533333z m27.733333 55.466666v170.666667h170.666667v-170.666667h-170.666667z m-27.733333 285.866667h512c8.533333 0 14.933333 2.133333 19.2 8.533333s8.533333 12.8 8.533333 19.2v228.266667c0 8.533333-2.133333 14.933333-8.533333 19.2-6.4 6.4-12.8 8.533333-19.2 8.533333h-512c-8.533333 0-14.933333-2.133333-19.2-8.533333-6.4-6.4-8.533333-12.8-8.533333-19.2v-228.266667c0-8.533333 2.133333-14.933333 8.533333-19.2 4.266667-6.4 10.666667-8.533333 19.2-8.533333z" p-id="1750"></path>
        </svg>