<svg t="1586085321028" class="icon" viewBox="0 0 1024 1024" version="1.1" xmlns="http://www.w3.org/2000/svg" p-id="2139" width="24" height="24">
          <path fill="#dbdbdb" d="M853.333333 228.266667h-682.666666v-57.6h682.666666v57.6z m-654.933333 55.466666h228.266667c8.533333 0 14.933333 2.133333 19.2 8.533334 6.4 6.4 8.533333 12.8 8.533333 19.2v512c0 8.533333-2.133333 14.933333-8.533333 19.2-6.4 6.4-12.8 8.533333-19.2 8.533333h-228.266667c-8.533333 0-14.933333-2.133333-19.2-8.533333s-8.533333-12.8-8.533333-19.2v-512c0-8.533333 2.133333-14.933333 8.533333-19.2 4.266667-4.266667 12.8-8.533333 19.2-8.533334z m341.333333 0h228.266667c8.533333 0 14.933333 2.133333 19.2 8.533334 6.4 6.4 8.533333 12.8 8.533333 19.2v228.266666c0 8.533333-2.133333 14.933333-8.533333 19.2-6.4 6.4-12.8 8.533333-19.2 8.533334h-228.266667c-8.533333 0-14.933333-2.133333-19.2-8.533334-6.4-6.4-8.533333-12.8-8.533333-19.2v-228.266666c0-8.533333 2.133333-14.933333 8.533333-19.2 4.266667-4.266667 12.8-8.533333 19.2-8.533334z m29.866667 57.6v170.666667h170.666667v-170.666667h-170.666667z" p-id="2140"></path>
        </svg>