<svg t="1586085354979" class="icon" viewBox="0 0 1024 1024" version="1.1" xmlns="http://www.w3.org/2000/svg" p-id="2269" width="24" height="24">
          <path fill="#dbdbdb" d="M198.4 256h228.266667c8.533333 0 14.933333 2.133333 19.2 8.533333 6.4 6.4 8.533333 12.8 8.533333 19.2v198.4h57.6v-85.333333c0-8.533333 2.133333-14.933333 8.533333-19.2 6.4-6.4 12.8-8.533333 19.2-8.533333h228.266667c8.533333 0 14.933333 2.133333 19.2 8.533333 6.4 6.4 8.533333 12.8 8.533333 19.2v85.333333h57.6v57.6h-57.6v85.333334c0 8.533333-2.133333 14.933333-8.533333 19.2-6.4 6.4-12.8 8.533333-19.2 8.533333h-228.266667c-8.533333 0-14.933333-2.133333-19.2-8.533333-6.4-6.4-8.533333-12.8-8.533333-19.2v-85.333334h-57.6v198.4c0 8.533333-2.133333 14.933333-8.533333 19.2s-12.8 8.533333-19.2 8.533334h-228.266667c-8.533333 0-14.933333-2.133333-19.2-8.533334s-8.533333-12.8-8.533333-19.2v-454.4c0-8.533333 2.133333-14.933333 8.533333-19.2s12.8-8.533333 19.2-8.533333z m371.2 170.666667v170.666666h170.666667v-170.666666h-170.666667z" p-id="2270"></path>
        </svg>