<svg t="1586082953607" class="icon" viewBox="0 0 1024 1024" version="1.1" xmlns="http://www.w3.org/2000/svg" p-id="1879" width="24" height="24">
  <path fill="#dbdbdb" d="M512 228.266667h85.333333c8.533333 0 14.933333 2.133333 19.2 8.533333 6.4 6.4 8.533333 12.8 8.533334 19.2v228.266667c0 8.533333-2.133333 14.933333-8.533334 19.2-6.4 6.4-12.8 8.533333-19.2 8.533333h-85.333333v57.6h256c8.533333 0 14.933333 2.133333 19.2 8.533333 6.4 6.4 8.533333 12.8 8.533333 19.2v228.266667c0 8.533333-2.133333 14.933333-8.533333 19.2-6.4 6.4-12.8 8.533333-19.2 8.533333h-512c-8.533333 0-14.933333-2.133333-19.2-8.533333s-8.533333-12.8-8.533333-19.2v-228.266667c0-8.533333 2.133333-14.933333 8.533333-19.2 6.4-6.4 12.8-8.533333 19.2-8.533333h198.4v-57.6h-85.333333c-8.533333 0-14.933333-2.133333-19.2-8.533333-6.4-6.4-8.533333-12.8-8.533334-19.2v-228.266667c0-8.533333 2.133333-14.933333 8.533334-19.2 6.4-6.4 12.8-8.533333 19.2-8.533333h85.333333v-57.6h57.6v57.6z m-113.066667 55.466666v170.666667h170.666667v-170.666667h-170.666667z" p-id="1880"></path>
</svg>