<svg t="1586085362569" class="icon" viewBox="0 0 1024 1024" version="1.1" xmlns="http://www.w3.org/2000/svg" p-id="2399" width="24" height="24">
          <path fill="#dbdbdb" d="M198.4 170.666667h228.266667c8.533333 0 14.933333 2.133333 19.2 8.533333 6.4 6.4 8.533333 12.8 8.533333 19.2v512c0 8.533333-2.133333 14.933333-8.533333 19.2-6.4 6.4-12.8 8.533333-19.2 8.533333h-228.266667c-8.533333 0-14.933333-2.133333-19.2-8.533333s-8.533333-12.8-8.533333-19.2v-512c0-8.533333 2.133333-14.933333 8.533333-19.2s12.8-8.533333 19.2-8.533333z m341.333333 283.733333h228.266667c8.533333 0 14.933333 2.133333 19.2 8.533333 6.4 6.4 8.533333 12.8 8.533333 19.2v228.266667c0 8.533333-2.133333 14.933333-8.533333 19.2-6.4 6.4-12.8 8.533333-19.2 8.533333h-228.266667c-8.533333 0-14.933333-2.133333-19.2-8.533333-6.4-6.4-8.533333-12.8-8.533333-19.2v-228.266667c0-8.533333 2.133333-14.933333 8.533333-19.2 4.266667-4.266667 12.8-8.533333 19.2-8.533333z m29.866667 57.6v170.666667h170.666667v-170.666667h-170.666667z m283.733333 341.333333h-682.666666v-57.6h682.666666v57.6z" p-id="2400"></path>
        </svg>