<svg t="1586138293166" class="icon" viewBox="0 0 1024 1024" version="1.1" xmlns="http://www.w3.org/2000/svg" p-id="3570" width="24" height="24">
          <path fill="#dbdbdb" d="M939.52 631.466667h-853.333333a34.133333 34.133333 0 0 1 0-68.266667h853.333333a34.133333 34.133333 0 0 1 0 68.266667zM938.666667 204.8H85.333333a34.133333 34.133333 0 0 1 0-68.266667h853.333334a34.133333 34.133333 0 0 1 0 68.266667z" p-id="3571"></path>
          <path fill="#dbdbdb" d="M170.666667 870.4a17.015467 17.015467 0 0 1-17.066667-17.015467v-0.017066V597.333333a17.066667 17.066667 0 1 1 34.133333 0v44.1344l56.200534-56.200533a17.0496 17.0496 0 1 1 24.132266 24.132267L187.733333 689.732267v122.402133l226.8672-226.8672a17.0496 17.0496 0 1 1 24.132267 24.132267L211.8656 836.266667h122.402133l250.999467-250.999467a17.0496 17.0496 0 1 1 24.132267 24.132267L382.532267 836.266667h122.402133l250.999467-250.999467a17.0496 17.0496 0 1 1 24.132266 24.132267L553.198933 836.266667h122.402134L836.266667 675.601067V597.333333a17.066667 17.066667 0 1 1 34.133333 0v256a17.066667 17.066667 0 0 1-17.066667 17.066667H170.666667z m553.198933-34.133333H836.266667v-112.401067L723.8656 836.266667zM853.333333 443.733333H170.666667a17.066667 17.066667 0 0 1-17.066667-17.066666V170.666667a17.066667 17.066667 0 0 1 34.133333 0v238.933333h648.533334V170.666667a17.066667 17.066667 0 1 1 34.133333 0v256a17.066667 17.066667 0 0 1-17.066667 17.066666z" p-id="3572"></path>
        </svg>