<svg t="1586136667209" class="icon" viewBox="0 0 1024 1024" version="1.1" xmlns="http://www.w3.org/2000/svg" p-id="3439" width="24" height="24">
          <path fill="#dbdbdb" d="M853.333333 973.653333a34.133333 34.133333 0 0 1-34.133333-34.133333v-853.333333a34.133333 34.133333 0 0 1 68.266667 0v853.333333a34.133333 34.133333 0 0 1-34.133334 34.133333zM426.666667 972.8a34.133333 34.133333 0 0 1-34.133334-34.133333V85.333333a34.133333 34.133333 0 0 1 68.266667 0v853.333334a34.133333 34.133333 0 0 1-34.133333 34.133333z" p-id="3440"></path>
          <path fill="#dbdbdb" d="M853.333333 871.253333H597.333333a17.066667 17.066667 0 0 1-17.066666-17.066666v-682.666667a17.066667 17.066667 0 0 1 17.066666-17.066667h256a17.066667 17.066667 0 1 1 0 34.133334H614.4v648.533333h238.933333a17.066667 17.066667 0 1 1 0 34.133333z m-426.666666 0H170.615467a16.861867 16.861867 0 0 1-12.014934-5.000533A17.220267 17.220267 0 0 1 153.6 854.237867V171.52a17.066667 17.066667 0 0 1 17.066667-17.066667h256a17.066667 17.066667 0 0 1 0 34.133334h-78.267734L187.733333 349.252267v122.402133l226.8672-226.8672a17.0496 17.0496 0 1 1 24.132267 24.132267L187.733333 519.918933v122.402134l226.8672-226.8672a17.0496 17.0496 0 1 1 24.132267 24.132266L187.733333 690.5856v122.402133l226.8672-226.8672a17.0496 17.0496 0 1 1 24.132267 24.132267L211.8656 837.12h122.402133l80.3328-80.3328a17.0496 17.0496 0 1 1 24.132267 24.132267l-56.200533 56.200533H426.666667a17.066667 17.066667 0 1 1 0 34.133333z m-238.933334-682.666666v112.401066l112.401067-112.401066H187.733333z" p-id="3441"></path>
        </svg>