<svg t="1586145265409" class="icon" viewBox="0 0 1024 1024" version="1.1" xmlns="http://www.w3.org/2000/svg" p-id="3237" width="24" height="24">
          <path fill="#dbdbdb" d="M853.333333 784.213333H597.333333a17.066667 17.066667 0 0 1-17.066666-17.066666v-512a17.066667 17.066667 0 0 1 17.066666-17.066667h256a17.066667 17.066667 0 0 1 17.066667 17.066667v512a17.066667 17.066667 0 0 1-17.066667 17.066666z m-128-34.133333H836.266667v-477.866667H614.4v477.866667h110.933333z m-298.666666 34.133333H170.666667a17.066667 17.066667 0 0 1-17.066667-17.066666v-512a17.066667 17.066667 0 0 1 17.066667-17.066667h256.0512a16.861867 16.861867 0 0 1 12.014933 5.000533 17.220267 17.220267 0 0 1 5.000533 12.014934V767.146667a17.066667 17.066667 0 0 1-17.066666 17.066666z m-128-34.133333H409.6v-111.547733l-111.547733 111.547733h0.6144z m-110.933334 0h62.0544L409.6 590.267733v-122.402133l-221.866667 221.866667v60.347733z m0-231.867733v123.255466l221.866667-221.866666v-123.255467l-221.866667 221.866667z m0-170.666667v122.402133L385.467733 272.213333h-122.402133L187.733333 347.5456z m0-75.332267v27.067734l27.067734-27.067734H187.733333z" p-id="3238"></path>
          <path fill="#dbdbdb" d="M725.333333 972.8a34.133333 34.133333 0 0 1-34.133333-34.133333v-85.333334a34.133333 34.133333 0 0 1 68.266667 0v85.333334a34.133333 34.133333 0 0 1-34.133334 34.133333z m-426.666666 0a34.133333 34.133333 0 0 1-34.133334-34.133333v-102.4a34.133333 34.133333 0 0 1 68.266667 0v102.4a34.133333 34.133333 0 0 1-34.133333 34.133333z m0-727.893333a34.133333 34.133333 0 0 1-34.133334-34.133334V85.333333a34.133333 34.133333 0 0 1 68.266667 0v125.44a34.133333 34.133333 0 0 1-34.133333 34.133334z m426.666666-34.133334a34.133333 34.133333 0 0 1-34.133333-34.133333V85.333333a34.133333 34.133333 0 0 1 68.266667 0v91.306667a34.133333 34.133333 0 0 1-34.133334 34.133333z" p-id="3239"></path>
          <path fill="#dbdbdb" d="M759.466667 853.333333h-68.266667v-86.186666h68.266667V853.333333z m-426.666667-17.066666h-68.266667v-69.12h68.266667V836.266667z m426.666667-581.12h-68.266667v-78.506667h68.266667v78.506667z m-426.666667 0h-68.266667v-44.373334h68.266667v44.373334z" p-id="3240"></path>
        </svg>