<svg t="1586136600522" class="icon" viewBox="0 0 1024 1024" version="1.1" xmlns="http://www.w3.org/2000/svg" p-id="3308" width="24" height="24">
          <path fill="#dbdbdb" d="M853.333333 870.4H597.333333a17.066667 17.066667 0 1 1 0-34.133333h238.933334V187.733333H597.333333a17.066667 17.066667 0 1 1 0-34.133333h256a17.066667 17.066667 0 0 1 17.066667 17.066667v682.666666a17.066667 17.066667 0 0 1-17.066667 17.066667z m-426.666666 0H170.615467a16.861867 16.861867 0 0 1-12.014934-5.000533A17.220267 17.220267 0 0 1 153.6 853.384533v-0.1024a16.861867 16.861867 0 0 1 5.000533-12.014933L409.6 590.267733v-122.402133L182.7328 694.7328a17.0496 17.0496 0 1 1-24.132267-24.132267L409.6 419.601067v-122.402134L182.7328 524.066133a17.0496 17.0496 0 1 1-24.132267-24.132266L409.6 248.9344V187.733333h-61.201067l-165.666133 165.666134a17.0496 17.0496 0 1 1-24.132267-24.132267L300.1344 187.733333H170.666667a17.066667 17.066667 0 0 1 0-34.133333h256a17.066667 17.066667 0 0 1 17.066666 17.066667v682.666666a17.066667 17.066667 0 0 1-17.066666 17.066667z m-44.1344-34.133333H409.6v-27.067734L382.532267 836.266667z m-170.666667 0h122.402133L409.6 760.9344v-122.402133L211.8656 836.266667z" p-id="3309"></path>
          <path fill="#dbdbdb" d="M597.333333 973.653333a34.133333 34.133333 0 0 1-34.133333-34.133333v-853.333333a34.133333 34.133333 0 0 1 68.266667 0v853.333333a34.133333 34.133333 0 0 1-34.133334 34.133333zM170.666667 972.8a34.133333 34.133333 0 0 1-34.133334-34.133333V85.333333a34.133333 34.133333 0 0 1 68.266667 0v853.333334a34.133333 34.133333 0 0 1-34.133333 34.133333z" p-id="3310"></path>
        </svg>