<svg t="1586138468344" class="icon" viewBox="0 0 1024 1024" version="1.1" xmlns="http://www.w3.org/2000/svg" p-id="3964" width="24" height="24">
          <path fill="#dbdbdb" d="M171.52 870.4a17.015467 17.015467 0 0 1-17.066667-17.015467v-0.017066V597.333333a17.066667 17.066667 0 0 1 17.066667-17.066666h682.666667a17.066667 17.066667 0 0 1 17.066666 17.066666v256a17.066667 17.066667 0 0 1-17.066666 17.066667h-682.666667z m553.198933-34.133333h112.401067v-112.401067L724.718933 836.266667z m-170.666666 0h122.402133l160.6656-160.6656V614.4h-61.201067l-221.866666 221.866667z m-170.666667 0h122.402133l221.866667-221.866667h-122.402133l-221.866667 221.866667z m-170.666667 0h122.402134l221.866666-221.866667h-122.402133l-221.866667 221.866667z m-24.132266-146.5344v122.402133L386.321067 614.4h-122.402134l-75.332266 75.332267z m0-75.332267v27.067733L215.6544 614.4H188.586667z m665.6-170.666667h-682.666667a17.066667 17.066667 0 0 1-17.066667-17.066666V170.666667a17.066667 17.066667 0 0 1 17.066667-17.066667h682.666667a17.066667 17.066667 0 0 1 17.066666 17.066667v256a17.066667 17.066667 0 0 1-17.066666 17.066666z m-665.6-34.133333h648.533333V187.733333h-648.533333v221.866667z" p-id="3965"></path>
          <path fill="#dbdbdb" d="M938.666667 759.466667h-30.72a34.133333 34.133333 0 0 1 0-68.266667H938.666667a34.133333 34.133333 0 0 1 0 68.266667z m-814.08 0H85.333333a34.133333 34.133333 0 0 1 0-68.266667h39.253334a34.133333 34.133333 0 0 1 0 68.266667z m814.08-426.666667h-12.8a34.133333 34.133333 0 0 1 0-68.266667H938.666667a34.133333 34.133333 0 0 1 0 68.266667z m-841.386667 0H85.333333a34.133333 34.133333 0 0 1 0-68.266667h11.946667a34.133333 34.133333 0 0 1 0 68.266667z" p-id="3966"></path><path d="M907.946667 759.466667h-53.76v-68.266667h53.76v68.266667z m-736.426667 0H124.586667v-68.266667h46.933333v68.266667z m754.346667-426.666667h-71.68v-68.266667h71.68v68.266667z m-754.346667 0H97.28v-68.266667h74.24v68.266667z" p-id="3967"></path>
        </svg>