<svg t="1586138410034" class="icon" viewBox="0 0 1024 1024" version="1.1" xmlns="http://www.w3.org/2000/svg" p-id="3701" width="24" height="24">
          <path fill="#dbdbdb" d="M854.186667 870.4a17.066667 17.066667 0 0 1-17.066667-17.066667v-129.467733l-141.533867 141.533867a17.0496 17.0496 0 1 1-24.132266-24.132267l165.666133-165.666133V614.4h-61.201067L524.919467 865.399467a17.0496 17.0496 0 1 1-24.132267-24.132267L727.6544 614.4h-122.402133L354.2528 865.399467a17.0496 17.0496 0 1 1-24.132267-24.132267L556.987733 614.4h-122.402133L183.586133 865.399467a16.9472 16.9472 0 0 1-12.014933 5.000533h-0.1024a16.861867 16.861867 0 0 1-12.014933-5.000533 17.220267 17.220267 0 0 1-5.000534-12.014934V597.333333a17.066667 17.066667 0 0 1 17.066667-17.066666h682.666667a17.066667 17.066667 0 0 1 17.066666 17.066666v256a17.066667 17.066667 0 0 1-17.066666 17.066667z m-665.6-180.667733v122.402133L386.321067 614.4h-122.402134l-75.332266 75.332267z m0-75.332267v27.067733L215.6544 614.4H188.586667z m665.6-170.666667a17.066667 17.066667 0 0 1-17.066667-17.066666V187.733333h-648.533333v238.933334a17.066667 17.066667 0 0 1-34.133334 0V170.666667a17.066667 17.066667 0 0 1 17.066667-17.066667h682.666667a17.066667 17.066667 0 0 1 17.066666 17.066667v256a17.066667 17.066667 0 0 1-17.066666 17.066666z" p-id="3702"></path>
          <path fill="#dbdbdb" d="M939.52 887.466667h-853.333333a34.133333 34.133333 0 0 1 0-68.266667h853.333333a34.133333 34.133333 0 0 1 0 68.266667zM938.666667 460.8H85.333333a34.133333 34.133333 0 0 1 0-68.266667h853.333334a34.133333 34.133333 0 0 1 0 68.266667z" p-id="3703"></path>
        </svg>