<svg t="1586139913088" class="icon" viewBox="0 0 1030 1024" version="1.1" xmlns="http://www.w3.org/2000/svg" p-id="556" width="24" height="24">
          <path fill="#dbdbdb" d="M1028.817361 686.340259 965.886449 686.340259 3.043496 686.340259 3.043496 686.21715 2.957753 686.21715 2.957753 1.573273 3.043496 1.573273 3.043496 0.786636 965.886449 0.786636 1028.030725 0.786636 1028.817361 0.786636 1028.817361 623.409347 1029.21068 623.409347 1029.21068 686.340259 1028.817361 686.340259ZM965.886449 63.717548 65.900858 63.717548 65.900858 623.409347 965.886449 623.409347 965.886449 63.717548ZM92.658295 878.906489 916.721674 878.906489 916.721674 806.54656 1025.162255 913.730489 916.721674 1023.213364 916.721674 941.825208 92.658295 941.825208 92.658295 1002.785203 0.786636 911.910999 92.658295 819.087511 92.658295 878.906489Z" p-id="557"></path>
        </svg>