<svg t="1586141689566" class="icon" viewBox="0 0 1024 1024" version="1.1" xmlns="http://www.w3.org/2000/svg" p-id="5774" width="24" height="24">
          <path fill="#dbdbdb" d="M128 345.6a42.666667 42.666667 0 0 0 42.666667-42.666667v-8.106666a42.666667 42.666667 0 0 0-85.333334 0v8.106666a42.666667 42.666667 0 0 0 42.666667 42.666667z m0-170.666667a42.666667 42.666667 0 0 0 17.92-4.266666 42.666667 42.666667 0 0 0-13.653333-85.333334H128a46.506667 46.506667 0 0 0-42.666667 46.933334 42.666667 42.666667 0 0 0 42.666667 40.533333z m741.973333-8.106666A42.666667 42.666667 0 0 0 938.666667 128a42.666667 42.666667 0 0 0-42.666667-42.666667h-4.266667a42.666667 42.666667 0 0 0-21.76 79.36z m-362.666666 3.84h9.386666a42.666667 42.666667 0 0 0 0-85.333334h-9.386666a42.666667 42.666667 0 0 0 0 85.333334z m-192 0h8.96a42.666667 42.666667 0 0 0 0-85.333334h-8.96a42.666667 42.666667 0 0 0 0 85.333334zM896 853.333333a42.666667 42.666667 0 0 0-17.92 4.266667 42.666667 42.666667 0 0 0 13.653333 81.066667h4.266667a46.506667 46.506667 0 0 0 42.666667-46.933334 42.666667 42.666667 0 0 0-42.666667-38.4z m-298.666667-384a42.666667 42.666667 0 0 0-42.666666-42.666666H139.52A46.08 46.08 0 0 0 128 426.666667a42.666667 42.666667 0 0 0-42.666667 42.666666v426.666667a42.666667 42.666667 0 0 0 42.666667 42.666667h430.933333a42.666667 42.666667 0 0 0 38.4-60.586667z m-85.333333 384H235.52l166.826667-166.4a14.08 14.08 0 0 1 20.053333 0l89.6 89.173334z m0-197.546666l-29.013333-29.44a100.266667 100.266667 0 0 0-141.226667 0l-170.666667 170.666666V512h341.333334z m384 0a42.666667 42.666667 0 0 0-42.666667 42.666666v8.96a42.666667 42.666667 0 0 0 85.333334 0v-7.68a42.666667 42.666667 0 0 0-42.666667-42.666666z m0-384a42.666667 42.666667 0 0 0-42.666667 42.666666v9.813334a42.666667 42.666667 0 1 0 85.333334 0v-8.96a42.666667 42.666667 0 0 0-42.666667-42.666667z m0 192a42.666667 42.666667 0 0 0-42.666667 42.666666v9.386667a42.666667 42.666667 0 0 0 85.333334 0v-9.386667a42.666667 42.666667 0 0 0-42.666667-41.813333zM729.6 853.333333h-8.533333a42.666667 42.666667 0 1 0 0 85.333334h8.533333a42.666667 42.666667 0 0 0 0-85.333334z m-20.906667-682.666666a42.666667 42.666667 0 0 0 0-85.333334h-8.96a42.666667 42.666667 0 1 0 0 85.333334z" p-id="5775"></path>
        </svg>