<svg t="1586186195188" class="icon" viewBox="0 0 1024 1024" version="1.1" xmlns="http://www.w3.org/2000/svg" p-id="2159" width="200" height="200">
  <path fill="#bdbdbd" d="M938.666667 469.333333a42.666667 42.666667 0 0 0-42.666667 42.666667c0 197.642667-149.354667 360.352-341.333333 381.578667V378.421333c73.557333-18.986667 128-85.589333 128-165.088 0-94.250667-76.416-170.666667-170.666667-170.666666s-170.666667 76.416-170.666667 170.666666c0 79.498667 54.442667 146.101333 128 165.088v515.157334C277.344 872.352 128 709.642667 128 512a42.666667 42.666667 0 0 0-85.333333 0c0 259.210667 210.133333 469.333333 469.333333 469.333333 259.210667 0 469.333333-210.122667 469.333333-469.333333a42.666667 42.666667 0 0 0-42.666666-42.666667zM426.666667 213.333333a85.333333 85.333333 0 1 1 170.666666 0 85.333333 85.333333 0 0 1-170.666666 0z" p-id="2160"></path>
</svg>